{"accessors":[{"bufferView":0,"componentType":5126,"count":259,"type":"VEC2"},{"bufferView":1,"componentType":5126,"count":259,"type":"VEC3"},{"bufferView":2,"componentType":5126,"count":259,"type":"VEC4"},{"bufferView":3,"componentType":5126,"count":259,"type":"VEC3","max":[98.89216,99.06248,100.038567],"min":[-98.8921661,-99.06247,-100.038567]},{"bufferView":4,"componentType":5123,"count":1440,"type":"SCALAR"}],"asset":{"generator":"glTF Tools for Unity","version":"2.0"},"bufferViews":[{"buffer":0,"byteLength":2072},{"buffer":0,"byteOffset":2072,"byteLength":3108},{"buffer":0,"byteOffset":5180,"byteLength":4144},{"buffer":0,"byteOffset":9324,"byteLength":3108},{"buffer":0,"byteOffset":12432,"byteLength":2880}],"buffers":[{"uri":"MexicoSoccerBall.bin","byteLength":15312}],"images":[{"uri":"MexicoSoccerBall_baseColor.jpg"},{"uri":"MexicoSoccerBall_roughnessMetallic.jpg"},{"uri":"MexicoSoccerBall_normal.jpg"}],"meshes":[{"primitives":[{"attributes":{"TEXCOORD_0":0,"NORMAL":1,"TANGENT":2,"POSITION":3},"indices":4,"material":0}],"name":"soccer_ball_low"}],"materials":[{"pbrMetallicRoughness":{"baseColorFactor":[0.6038274,0.6038274,0.6038274,1.0],"baseColorTexture":{"index":0},"metallicRoughnessTexture":{"index":1}},"normalTexture":{"index":2},"name":"soccer_ball_lowMat"}],"nodes":[{"mesh":0,"name":"MexicoSoccerBall"}],"scene":0,"scenes":[{"nodes":[0]}],"textures":[{"source":0},{"source":1},{"source":2}]}